<?xml version="1.0" standalone="no"?>
<!DOCTYPE svg PUBLIC "-//W3C//DTD SVG 20010904//EN"
 "http://www.w3.org/TR/2001/REC-SVG-20010904/DTD/svg10.dtd">
<svg version="1.0" xmlns="http://www.w3.org/2000/svg"
 width="1200.000000pt" height="1200.000000pt" viewBox="0 0 1200.000000 1200.000000"
 preserveAspectRatio="xMidYMid meet">
<metadata>
Created by potrace 1.16, written by Peter Selinger 2001-2019
</metadata>
<g transform="translate(0.000000,1200.000000) scale(0.100000,-0.100000)"
fill="#000000" stroke="none">
<path d="M6354 11835 c-5 -12 -30 -15 -139 -15 -79 0 -136 -4 -140 -10 -3 -5
-27 -10 -53 -10 -26 0 -60 -7 -76 -15 -15 -8 -41 -15 -57 -15 -17 0 -32 -6
-35 -15 -4 -10 -20 -15 -49 -15 -26 0 -60 -10 -89 -25 -26 -14 -51 -25 -56
-25 -18 0 -110 -44 -110 -52 0 -4 -8 -8 -19 -8 -10 0 -24 -7 -31 -15 -7 -8
-19 -15 -26 -15 -8 0 -14 -4 -14 -10 0 -5 -11 -12 -25 -16 -14 -3 -25 -10 -25
-15 0 -5 -9 -9 -20 -9 -11 0 -23 -7 -26 -15 -4 -8 -12 -15 -20 -15 -8 0 -14
-7 -14 -15 0 -9 -9 -15 -23 -15 -13 0 -39 -17 -62 -40 -22 -21 -46 -39 -52
-40 -16 0 -273 -254 -273 -269 0 -6 -13 -24 -30 -41 -16 -17 -30 -35 -30 -40
0 -6 -4 -10 -9 -10 -5 0 -13 -10 -16 -22 -4 -11 -18 -31 -31 -43 -13 -12 -24
-27 -24 -32 0 -6 -13 -29 -30 -51 -16 -23 -30 -49 -30 -57 0 -8 -4 -15 -10
-15 -5 0 -12 -11 -16 -25 -3 -14 -10 -25 -15 -25 -5 0 -9 -11 -9 -25 0 -14 -7
-28 -15 -31 -8 -4 -15 -16 -15 -29 0 -13 -7 -25 -15 -29 -8 -3 -15 -17 -15
-31 0 -14 -4 -25 -10 -25 -5 0 -13 -18 -16 -40 -4 -22 -10 -40 -15 -40 -5 0
-9 -10 -9 -22 0 -13 -7 -36 -15 -52 -8 -15 -15 -41 -15 -57 0 -17 -6 -32 -15
-35 -10 -4 -15 -21 -15 -54 0 -30 -6 -52 -15 -60 -10 -8 -15 -31 -15 -69 0
-32 -5 -62 -12 -69 -17 -17 -19 -609 -2 -620 6 -4 13 -36 16 -71 3 -37 10 -67
16 -69 7 -2 12 -16 12 -32 0 -16 7 -35 15 -44 8 -8 15 -26 15 -40 0 -14 5 -26
10 -26 17 0 11 -20 -7 -27 -28 -11 -113 -99 -113 -117 0 -9 -4 -16 -10 -16 -5
0 -13 -12 -16 -27 -4 -16 -12 -31 -18 -35 -6 -4 -12 -40 -14 -80 -2 -40 -8
-77 -13 -82 -12 -13 -12 -76 0 -76 5 0 11 -30 13 -67 2 -39 9 -68 16 -71 7 -2
12 -16 12 -32 0 -16 6 -35 13 -42 7 -7 16 -20 20 -28 28 -56 77 -120 93 -120
7 0 14 -7 18 -15 3 -8 12 -15 19 -15 8 0 20 -7 27 -15 7 -8 23 -15 35 -15 13
0 25 -7 29 -15 3 -8 16 -15 30 -15 13 0 26 -5 28 -12 2 -6 31 -13 66 -16 34
-2 65 -8 68 -13 3 -5 44 -9 92 -9 75 0 90 -3 105 -20 9 -11 17 -29 17 -40 0
-11 7 -20 15 -20 10 0 15 -10 15 -28 0 -29 56 -154 72 -160 4 -2 8 -10 8 -17
0 -7 7 -15 15 -19 8 -3 15 -17 15 -31 0 -14 4 -25 10 -25 5 0 12 -11 16 -25 3
-14 10 -25 14 -25 4 0 10 -10 14 -23 3 -13 17 -36 31 -51 14 -15 25 -36 25
-47 0 -10 7 -19 15 -19 8 0 15 -7 15 -15 0 -8 5 -15 10 -15 6 0 10 -9 10 -20
0 -11 7 -23 15 -26 8 -4 15 -12 15 -20 0 -8 7 -14 15 -14 8 0 15 -9 15 -21 0
-22 95 -119 117 -119 7 0 13 -4 13 -10 0 -5 9 -10 20 -10 18 0 20 -7 20 -60 0
-33 -4 -60 -10 -60 -5 0 -10 -11 -10 -24 0 -45 -13 -86 -26 -86 -9 0 -14 -12
-14 -36 0 -28 -3 -35 -15 -30 -11 4 -15 -1 -15 -19 0 -14 -4 -25 -10 -25 -5 0
-12 -11 -16 -25 -3 -14 -10 -25 -14 -25 -4 0 -11 -11 -14 -25 -4 -14 -11 -25
-16 -25 -6 0 -10 -7 -10 -15 0 -9 -9 -15 -24 -15 -13 0 -26 -7 -30 -15 -4 -12
-29 -15 -135 -15 -76 0 -132 -4 -136 -10 -4 -6 -53 -10 -116 -10 -66 0 -109 4
-109 10 0 12 -92 13 -106 1 -5 -5 -49 -11 -98 -13 -56 -3 -91 -9 -94 -16 -2
-8 -28 -12 -68 -12 -48 0 -66 -4 -70 -15 -5 -11 -22 -15 -70 -15 -35 0 -64 -4
-64 -9 0 -5 -23 -11 -52 -13 -29 -3 -54 -11 -56 -17 -2 -6 -23 -11 -47 -11
-25 0 -50 -6 -59 -15 -8 -8 -28 -15 -45 -15 -16 0 -36 -7 -45 -15 -8 -8 -31
-15 -50 -15 -20 0 -36 -4 -36 -9 0 -5 -18 -11 -40 -15 -22 -3 -40 -11 -40 -16
0 -6 -13 -10 -29 -10 -16 0 -36 -7 -45 -15 -8 -8 -24 -15 -36 -15 -11 0 -23
-7 -26 -15 -4 -8 -17 -15 -30 -15 -14 0 -27 -7 -30 -15 -4 -8 -18 -15 -32 -15
-29 0 -102 -30 -102 -42 0 -4 -7 -8 -16 -8 -8 0 -30 -11 -47 -24 -18 -13 -42
-27 -54 -31 -13 -3 -23 -10 -23 -15 0 -4 -11 -11 -25 -14 -14 -4 -25 -11 -25
-16 0 -6 -7 -10 -15 -10 -8 0 -15 -7 -15 -15 0 -10 -10 -15 -30 -15 -16 0 -30
-4 -30 -9 0 -5 -10 -13 -22 -17 -13 -4 -40 -24 -60 -45 -21 -22 -43 -39 -49
-39 -14 0 -35 -19 -190 -173 -71 -70 -136 -141 -144 -157 -8 -16 -23 -35 -32
-42 -17 -13 -36 -38 -50 -67 -3 -7 -17 -25 -29 -39 -13 -14 -24 -33 -24 -44 0
-10 -7 -21 -15 -24 -8 -4 -15 -12 -15 -19 0 -7 -7 -15 -15 -19 -8 -3 -15 -15
-15 -26 0 -11 -4 -20 -8 -20 -10 0 -42 -71 -42 -93 0 -10 -7 -17 -15 -17 -9 0
-15 -9 -15 -25 0 -14 -7 -28 -15 -31 -8 -4 -15 -16 -15 -29 0 -13 -7 -25 -15
-29 -8 -3 -15 -17 -15 -31 0 -14 -4 -25 -10 -25 -5 0 -10 -8 -10 -19 0 -10 -7
-24 -15 -31 -8 -7 -15 -27 -15 -45 0 -20 -6 -35 -15 -39 -9 -3 -15 -18 -15
-39 0 -19 -7 -40 -15 -47 -8 -7 -15 -21 -15 -31 0 -10 -5 -21 -10 -24 -5 -3
-10 -21 -10 -39 0 -19 -7 -39 -15 -46 -9 -8 -15 -29 -15 -55 0 -29 -5 -45 -15
-49 -10 -3 -15 -19 -15 -45 0 -22 -5 -41 -11 -43 -6 -2 -13 -25 -16 -51 -3
-26 -10 -50 -14 -53 -5 -3 -9 -27 -9 -54 0 -33 -5 -50 -15 -54 -11 -4 -15 -20
-15 -56 0 -36 -4 -52 -15 -56 -11 -5 -15 -21 -15 -59 0 -29 -5 -55 -11 -57 -6
-2 -13 -32 -16 -66 -3 -34 -9 -62 -13 -62 -4 0 -11 -31 -14 -70 -4 -38 -11
-70 -17 -70 -5 0 -9 -31 -9 -69 0 -52 -4 -70 -15 -75 -11 -4 -15 -22 -15 -76
0 -50 -4 -76 -15 -86 -10 -11 -15 -36 -15 -84 0 -38 -5 -72 -10 -75 -6 -3 -10
-48 -10 -100 0 -73 -3 -94 -15 -99 -12 -4 -15 -26 -15 -110 0 -83 -3 -105 -15
-110 -21 -8 -21 -174 0 -202 8 -10 15 -34 15 -52 0 -20 6 -35 15 -38 8 -4 15
-10 15 -16 0 -18 67 -78 89 -78 11 0 21 -4 21 -10 0 -5 11 -10 24 -10 13 0 26
-7 30 -15 3 -8 17 -15 31 -15 16 0 25 -6 25 -15 0 -9 9 -15 25 -15 14 0 25 -4
25 -10 0 -5 18 -13 40 -16 22 -4 43 -11 46 -15 3 -5 21 -9 40 -9 22 0 37 -6
40 -15 4 -8 17 -15 31 -15 25 0 53 -20 53 -38 0 -6 7 -12 15 -16 8 -3 15 -17
15 -31 0 -14 5 -25 10 -25 6 0 10 -8 10 -19 0 -12 7 -18 18 -17 12 1 17 -6 17
-26 -1 -20 4 -28 17 -28 12 0 18 -8 18 -24 0 -13 7 -26 15 -30 9 -3 15 -18 15
-36 0 -16 4 -30 10 -30 5 0 12 -16 16 -35 3 -19 10 -38 15 -41 5 -3 9 -16 9
-30 0 -17 -5 -24 -20 -24 -19 0 -20 -7 -20 -90 0 -53 -4 -90 -10 -90 -13 0
-14 -612 -1 -626 5 -5 11 -141 13 -303 2 -224 6 -295 16 -299 9 -3 12 -77 12
-328 0 -279 2 -325 15 -330 12 -5 15 -25 15 -95 l0 -89 3365 0 3365 0 0 83 c0
74 -3 85 -25 109 -14 15 -25 38 -25 51 0 14 -7 30 -15 37 -10 9 -15 32 -15 75
0 47 -4 64 -15 69 -13 4 -15 33 -15 175 0 102 -4 172 -10 176 -6 4 -10 82 -10
200 0 107 -4 205 -10 219 l-10 26 235 0 c145 0 236 4 240 10 3 6 27 10 53 10
26 0 60 7 76 15 15 8 41 15 57 15 17 0 32 6 35 15 4 8 17 15 30 15 14 0 27 7
30 15 4 8 19 15 35 15 16 0 39 11 55 25 15 14 33 25 40 25 15 0 194 172 194
187 0 6 13 26 30 44 16 19 30 44 30 55 0 12 7 24 15 28 9 3 15 18 15 40 0 21
6 36 15 40 9 3 15 19 15 41 0 19 5 35 10 35 6 0 10 24 10 54 0 39 4 55 15 60
12 4 15 26 15 110 0 83 3 105 15 110 13 5 15 43 15 265 0 217 -2 262 -15 275
-11 11 -15 38 -15 104 0 71 -3 91 -15 96 -11 4 -15 22 -15 71 0 36 -4 65 -9
65 -5 0 -11 23 -13 52 -3 29 -11 54 -17 56 -6 2 -11 15 -11 28 0 14 -7 27 -15
30 -17 7 -22 84 -6 84 5 0 13 10 17 22 3 12 13 28 20 36 8 7 14 22 14 33 0 10
5 19 10 19 6 0 10 28 10 64 0 44 5 67 15 76 8 7 15 19 15 27 0 7 -7 16 -15 19
-9 4 -15 19 -15 35 0 16 -4 29 -10 29 -5 0 -10 7 -10 15 0 8 -13 28 -30 45
-16 17 -30 37 -30 46 0 8 -11 25 -25 38 -14 13 -25 30 -25 38 0 8 -13 28 -30
44 -16 16 -30 36 -30 44 0 8 -12 26 -25 39 -14 13 -25 32 -25 42 0 11 -7 22
-15 25 -8 4 -15 12 -15 20 0 8 -7 14 -15 14 -9 0 -15 9 -15 25 0 16 -6 25 -15
25 -8 0 -15 7 -15 15 0 8 -4 15 -10 15 -5 0 -10 9 -10 20 0 11 -7 23 -15 26
-8 4 -15 12 -15 20 0 8 -7 14 -15 14 -9 0 -15 10 -15 26 0 16 -10 34 -25 46
-14 11 -25 28 -25 39 0 11 -7 22 -15 25 -8 4 -15 12 -15 20 0 8 -7 14 -15 14
-9 0 -15 9 -15 25 0 14 -4 25 -10 25 -5 0 -12 11 -16 25 -3 14 -10 25 -15 25
-5 0 -9 7 -9 15 0 8 -7 15 -15 15 -8 0 -15 9 -15 20 0 10 -13 33 -30 50 -16
17 -30 38 -30 47 0 9 -11 26 -25 39 -14 13 -25 30 -25 39 0 9 -7 18 -15 21 -8
4 -15 12 -15 19 0 7 -3 15 -7 17 -5 2 -17 20 -27 41 -11 20 -25 37 -33 37 -7
0 -13 11 -13 25 0 14 -7 28 -15 31 -8 4 -15 12 -15 20 0 8 -4 14 -10 14 -5 0
-10 7 -10 15 0 8 -13 28 -30 45 -16 17 -30 37 -30 45 0 17 -35 55 -50 55 -5 0
-10 10 -10 23 -1 25 -22 57 -39 57 -6 0 -11 14 -11 30 0 20 -5 30 -15 30 -8 0
-15 8 -15 19 0 10 -11 30 -25 45 -14 15 -25 33 -25 40 0 7 -13 26 -30 42 -16
16 -30 36 -30 45 0 8 -11 26 -25 39 -14 13 -25 32 -25 42 0 10 -7 21 -15 24
-8 4 -15 12 -15 20 0 8 -7 14 -15 14 -9 0 -15 9 -15 25 0 16 -6 25 -15 25 -8
0 -15 7 -15 15 0 8 -4 15 -10 15 -5 0 -10 7 -10 15 0 8 -7 15 -15 15 -8 0 -15
9 -15 20 0 12 -11 31 -24 43 -13 12 -26 32 -30 45 -4 12 -12 22 -17 22 -5 0
-9 7 -9 15 0 8 -7 15 -15 15 -8 0 -15 7 -15 15 0 8 -7 15 -15 15 -9 0 -15 9
-15 21 0 12 -11 32 -25 45 -14 13 -25 28 -25 34 0 5 -7 10 -15 10 -8 0 -15 7
-15 15 0 8 -7 15 -15 15 -9 0 -15 9 -15 25 0 16 -6 25 -15 25 -8 0 -15 5 -15
10 0 13 -166 180 -179 180 -5 0 -11 7 -15 15 -3 8 -15 15 -26 15 -11 0 -20 7
-20 15 0 8 -7 15 -15 15 -8 0 -15 7 -15 15 0 8 -7 15 -15 15 -8 0 -15 4 -15
10 0 5 -11 12 -25 16 -14 3 -25 10 -25 15 0 5 -6 9 -14 9 -8 0 -16 7 -20 15
-3 8 -14 15 -25 15 -10 0 -21 7 -25 15 -3 8 -16 15 -30 15 -13 0 -26 7 -30 15
-3 8 -14 15 -25 15 -11 0 -23 5 -26 10 -3 6 -17 10 -31 10 -15 0 -24 6 -24 15
0 9 -9 15 -24 15 -13 0 -29 7 -36 15 -7 8 -28 15 -46 15 -19 0 -34 5 -34 10 0
6 -18 10 -40 10 -29 0 -40 4 -40 15 0 11 -11 15 -39 15 -25 0 -41 5 -45 15 -4
11 -20 15 -55 15 -34 0 -51 4 -55 15 -3 10 -19 15 -46 15 -22 0 -40 4 -40 9 0
5 -11 12 -25 15 -14 4 -25 11 -25 16 0 6 -16 10 -35 10 -29 0 -43 8 -80 47
-25 26 -45 50 -45 55 0 4 16 8 35 8 19 0 35 5 35 10 0 6 18 10 40 10 27 0 43
5 46 15 4 8 18 15 34 15 16 0 35 7 44 15 8 8 23 15 33 15 10 1 36 19 58 40 22
22 43 40 47 40 5 0 8 7 8 15 0 8 7 15 15 15 8 0 15 7 15 15 0 8 5 15 10 15 11
0 70 56 70 66 0 3 11 15 24 27 13 12 26 32 30 45 4 12 12 22 17 22 5 0 9 14 9
30 0 20 5 30 15 30 9 0 15 9 15 24 0 13 7 26 15 30 8 3 15 16 15 30 0 13 7 26
15 30 8 3 15 12 15 20 0 7 7 27 15 42 8 16 15 37 15 46 0 9 5 20 10 23 6 3 10
17 10 31 0 15 6 24 15 24 8 0 15 6 15 14 0 8 3 16 8 18 11 5 52 93 52 111 0 9
5 19 10 22 6 3 10 17 10 30 0 12 7 25 15 29 9 3 15 18 15 36 0 17 7 38 15 46
8 9 15 28 15 44 0 16 5 32 10 35 6 3 10 23 10 45 0 24 5 40 15 44 11 4 15 20
15 55 0 34 4 51 15 55 11 4 15 23 15 80 0 51 4 76 13 78 8 3 13 37 15 109 2
57 8 110 14 116 6 8 12 118 16 268 3 140 9 255 13 255 12 0 12 257 0 264 -4 3
-10 94 -13 202 -4 124 -10 200 -17 207 -6 6 -11 47 -11 98 0 65 -4 90 -15 99
-11 9 -15 32 -15 80 0 48 -4 71 -15 80 -10 8 -15 30 -15 62 0 34 -4 50 -15 54
-10 4 -15 20 -15 45 0 21 -4 39 -10 39 -5 0 -10 13 -10 29 0 16 -7 36 -15 45
-8 8 -15 24 -15 36 0 11 -7 23 -15 26 -8 4 -15 18 -15 32 0 33 -57 151 -87
179 -13 12 -23 29 -23 38 0 8 -18 33 -40 55 -22 22 -40 47 -40 55 0 9 -7 18
-15 21 -8 4 -15 12 -15 20 0 8 -7 14 -15 14 -8 0 -15 7 -15 15 0 8 -5 15 -11
15 -6 0 -18 7 -26 16 -13 13 -14 20 -5 35 15 23 16 49 2 49 -5 0 -10 7 -10 15
0 9 -7 18 -15 21 -11 5 -15 22 -15 66 0 51 -4 64 -24 83 -13 12 -27 31 -30 43
-4 12 -16 24 -27 27 -11 4 -56 42 -99 86 -44 43 -86 79 -95 79 -8 0 -32 18
-54 40 -21 22 -48 40 -60 40 -12 0 -21 6 -21 15 0 9 -9 15 -24 15 -13 0 -26 6
-29 14 -3 8 -24 22 -46 32 -23 10 -41 21 -41 26 0 4 -11 8 -24 8 -13 0 -26 7
-30 15 -3 8 -16 15 -30 15 -13 0 -26 7 -30 15 -3 9 -18 15 -40 15 -21 0 -36 6
-40 15 -3 8 -17 15 -31 15 -14 0 -25 4 -25 10 0 5 -18 13 -40 16 -22 4 -40 10
-40 15 0 5 -18 9 -39 9 -25 0 -41 5 -45 15 -4 10 -20 15 -51 15 -28 0 -52 6
-61 15 -10 10 -35 15 -75 15 -33 0 -59 4 -59 10 0 6 -51 10 -134 10 -106 0
-136 3 -146 15 -9 11 -33 15 -92 15 -61 0 -80 -3 -84 -15z m461 -874 c55 -6
134 -15 175 -21 210 -29 336 -40 478 -40 152 0 203 7 267 35 17 8 51 18 77 23
42 8 49 7 67 -12 12 -12 21 -27 21 -33 0 -6 3 -13 8 -15 21 -9 191 -352 208
-421 3 -15 10 -30 15 -33 5 -3 9 -14 9 -24 0 -11 6 -34 14 -52 55 -134 112
-391 138 -633 17 -156 17 -802 0 -980 -26 -269 -80 -573 -122 -680 l-11 -30
-24 47 c-70 138 -176 258 -300 339 -70 46 -97 60 -187 95 -53 21 -57 29 -30
53 40 35 82 131 82 189 0 43 -31 120 -65 159 -62 72 -171 105 -199 60 -9 -15
-6 -22 19 -40 55 -39 103 -95 121 -142 16 -43 16 -51 2 -88 -9 -26 -28 -51
-48 -64 -62 -43 -134 -26 -260 61 -62 43 -79 44 -114 10 -37 -37 -33 -65 14
-108 22 -20 40 -38 40 -40 0 -2 -25 -6 -55 -10 -74 -8 -132 -23 -240 -59 -82
-27 -243 -100 -255 -116 -3 -3 -32 -24 -65 -46 -77 -52 -166 -135 -219 -204
-44 -58 -106 -176 -106 -203 0 -8 -8 -22 -18 -32 -18 -15 -22 -15 -66 9 -69
37 -319 205 -401 270 -111 87 -241 223 -301 311 -58 87 -144 253 -144 278 0 8
-4 17 -9 20 -5 3 -12 22 -15 41 -4 19 -10 35 -13 35 -17 0 -43 -36 -43 -59 0
-14 -7 -62 -15 -106 -8 -44 -18 -173 -21 -287 -4 -115 -10 -208 -13 -208 -8 0
-111 101 -111 109 0 3 4 20 9 38 7 25 5 37 -12 61 -27 38 -40 42 -147 42 -162
1 -280 47 -340 135 -50 72 -63 114 -62 200 0 155 75 254 228 300 54 16 200 20
236 6 13 -5 46 -19 75 -30 66 -27 67 -27 60 9 -6 28 -4 30 23 30 16 0 39 -4
52 -9 84 -33 117 -48 144 -68 36 -27 70 -29 96 -6 22 20 23 74 4 215 -41 290
-48 387 -48 652 0 172 3 281 10 298 21 51 46 59 239 69 186 10 260 25 300 62
45 41 39 75 -26 151 -59 68 -81 122 -81 201 0 39 6 78 15 95 18 34 85 89 140
114 22 11 47 22 56 27 26 12 145 40 233 55 90 14 345 12 511 -5z m752 -2690
c228 -35 310 -100 406 -321 16 -36 31 -87 34 -115 9 -94 -59 -175 -174 -210
-87 -26 -112 -21 -178 35 -149 124 -164 133 -219 138 -72 6 -123 -24 -204
-119 -34 -41 -76 -89 -92 -108 l-30 -34 -114 6 c-100 5 -199 22 -261 47 -129
50 -201 89 -234 124 -21 22 -23 33 -19 88 3 52 11 75 43 128 43 72 136 169
205 217 89 61 170 93 315 127 93 21 373 20 522 -3z m-1741 -924 c41 -35 114
-81 174 -109 100 -48 167 -78 174 -78 4 0 31 -11 59 -23 29 -13 72 -32 97 -42
25 -10 52 -24 60 -31 92 -73 525 -174 747 -174 99 0 119 -9 128 -59 4 -23 11
-43 16 -47 5 -3 9 -13 9 -23 0 -21 52 -122 86 -167 37 -49 35 -70 -37 -284
-49 -147 -59 -172 -111 -274 -88 -170 -200 -265 -393 -332 -78 -27 -86 -28
-300 -28 -175 0 -236 4 -300 18 -118 26 -252 64 -300 85 -11 5 -40 16 -65 26
-271 105 -586 356 -786 625 -58 79 -124 191 -124 211 0 41 55 55 310 79 58 6
125 18 150 27 134 50 230 167 288 353 19 58 42 179 42 215 0 74 17 81 76 32z
m2820 -3752 c71 -52 174 -169 174 -199 0 -10 -109 -2 -275 19 -60 8 -130 16
-155 19 -103 10 -210 29 -210 37 0 13 59 49 190 115 75 39 95 43 171 40 54 -3
74 -8 105 -31z m-2676 -45 c164 -12 395 -36 485 -50 33 -6 107 -17 165 -25
129 -19 262 -41 355 -61 39 -8 81 -14 94 -14 13 0 40 -4 60 -9 20 -6 79 -17
131 -26 52 -8 131 -22 175 -29 44 -8 121 -21 170 -29 50 -9 119 -20 155 -27
65 -11 185 -28 250 -36 19 -2 76 -11 125 -19 50 -8 149 -22 220 -30 72 -9 162
-20 200 -25 39 -5 99 -12 135 -15 36 -3 99 -10 140 -15 41 -5 145 -16 230 -24
551 -54 656 -58 704 -27 39 26 55 57 56 107 0 44 -31 84 -81 103 -23 8 -220
31 -274 31 -19 0 -19 0 1 21 22 21 40 27 189 59 98 21 325 28 325 10 0 -11 60
-142 69 -150 8 -6 33 -61 61 -130 12 -30 26 -59 31 -64 5 -6 9 -21 9 -34 0
-13 5 -32 10 -43 14 -25 26 -86 51 -254 33 -224 18 -617 -30 -795 -46 -167
-139 -284 -281 -351 -137 -66 -328 -88 -595 -71 -100 7 -206 16 -236 22 -30 5
-106 16 -169 25 -63 9 -144 23 -180 30 -36 8 -92 19 -125 25 -135 27 -288 63
-365 85 -25 7 -72 21 -105 30 -86 25 -297 94 -320 105 -11 5 -78 33 -150 61
-142 56 -518 239 -560 272 -5 4 -66 41 -135 82 -69 42 -165 102 -215 135 -49
33 -97 63 -105 67 -8 3 -50 28 -93 55 -368 229 -733 354 -1167 399 -95 9 -286
9 -504 -1 -63 -3 -87 30 -176 250 -27 67 -33 82 -59 142 -35 80 -36 80 103
119 334 94 446 113 751 127 172 8 271 6 475 -8z m-1755 -195 c179 -16 237 -33
243 -70 3 -18 41 -148 77 -260 7 -22 18 -58 24 -80 44 -145 110 -222 223 -256
18 -5 154 -14 302 -20 555 -20 848 -101 1281 -351 72 -42 475 -295 493 -310 6
-6 12 -14 12 -19 0 -10 -78 -48 -204 -99 -44 -18 -87 -36 -95 -40 -9 -4 -36
-16 -61 -25 -25 -10 -58 -23 -75 -30 -62 -27 -82 -34 -165 -65 -47 -18 -98
-38 -115 -46 -16 -7 -64 -25 -105 -39 -41 -15 -91 -33 -110 -40 -99 -38 -436
-151 -565 -190 -27 -8 -92 -28 -144 -45 -52 -16 -104 -30 -116 -30 -11 0 -25
-4 -30 -8 -6 -5 -41 -17 -80 -26 -62 -15 -105 -27 -210 -56 -66 -19 -275 -69
-348 -84 -48 -10 -129 -16 -211 -16 -122 0 -140 3 -227 31 -213 71 -446 278
-707 631 -40 53 -72 99 -72 102 0 3 -24 40 -53 83 -30 43 -69 105 -87 138 -18
33 -36 65 -40 70 -27 35 -210 418 -210 438 0 7 -4 17 -9 23 -5 5 -18 36 -29
69 -12 33 -26 76 -33 95 -7 19 -18 49 -26 67 -7 17 -13 38 -13 47 0 9 -4 24
-9 34 -11 19 -31 103 -31 127 0 21 34 34 225 85 44 12 103 28 130 35 28 8 82
22 120 30 39 8 86 20 105 25 46 13 141 31 215 40 33 5 92 13 130 19 69 11 268
27 375 29 30 1 131 -5 225 -13z"/>
<path d="M7620 9943 c-56 -21 -67 -100 -18 -136 15 -11 60 -25 110 -33 81 -13
230 -56 252 -72 21 -16 137 -62 156 -62 43 0 32 55 -23 111 -72 73 -173 130
-282 159 -16 4 -41 12 -55 17 -33 13 -121 23 -140 16z"/>
<path d="M6630 9894 c-19 -7 -43 -13 -53 -13 -27 -1 -144 -58 -207 -101 -68
-46 -129 -107 -170 -168 -30 -45 -30 -47 -11 -50 12 -2 36 7 53 20 147 104
306 158 474 158 46 1 89 6 103 14 60 33 56 110 -6 140 -40 19 -133 19 -183 0z"/>
<path d="M6526 9470 c-28 -34 -39 -89 -40 -200 0 -97 7 -121 43 -143 39 -23
54 -22 89 8 44 37 72 128 72 235 0 77 -2 89 -23 108 -17 16 -36 22 -69 22 -39
0 -50 -5 -72 -30z"/>
<path d="M7794 9468 c-44 -49 -66 -111 -58 -164 3 -25 10 -47 15 -50 5 -3 9
-13 9 -23 0 -25 43 -69 74 -77 74 -18 136 74 136 203 0 61 -11 88 -49 120 -40
34 -91 31 -127 -9z"/>
<path d="M4718 8869 c-17 -12 -28 -30 -28 -45 l0 -25 30 22 c29 22 30 22 77 5
43 -16 117 -50 266 -122 27 -13 59 -24 71 -24 34 0 66 40 66 83 0 34 -4 39
-42 56 -81 36 -205 61 -323 67 -80 4 -93 2 -117 -17z"/>
<path d="M7031 8192 c-69 -33 -65 -105 10 -180 152 -153 400 -163 553 -22 73
67 117 175 84 208 -21 21 -45 13 -80 -24 -40 -42 -119 -95 -169 -112 -93 -32
-210 4 -276 84 -44 54 -79 67 -122 46z"/>
</g>
</svg>
